<svg width="152" height="32" viewBox="0 0 152 32" fill="none" xmlns="http://www.w3.org/2000/svg">
<g clip-path="url(#clip0_3_787)">
<path d="M13.6971 22.8566L2.28285 22.8571C1.028 22.8564 0.00025448 21.8041 0 20.5705C0.00101846 19.3372 1.02884 18.2858 2.28332 18.2853H6.86414C8.11292 18.2765 9.1314 17.2273 9.13189 15.9995V2.28524C9.13261 1.05225 10.1601 0.000778792 11.4142 0C12.6687 0.00051919 13.6963 1.05207 13.6971 2.28524V8.74896C13.6979 9.96496 14.778 11.0334 15.9795 11.0342C17.2341 11.0337 18.2618 9.98184 18.2624 8.74848V2.28524C18.2631 1.05207 19.2908 0.000519188 20.5452 0C21.7997 0.000518926 22.8275 1.05199 22.8285 2.28524V29.7143C22.8278 30.9477 21.7999 31.9995 20.5452 32C19.2906 31.9995 18.2629 30.9476 18.2624 29.7143V27.4286C18.2624 24.905 16.2165 22.8566 13.6971 22.8566Z" fill="#DEDEDE"/>
<path d="M13.1755 31.208C14.975 31.208 16.4337 29.7474 16.4337 27.9457C16.4337 26.1439 14.975 24.6834 13.1755 24.6834C11.376 24.6834 9.91724 26.1439 9.91724 27.9457C9.91724 29.7474 11.376 31.208 13.1755 31.208Z" fill="#DEDEDE"/>
<path fill-rule="evenodd" clip-rule="evenodd" d="M42.5904 14.4414C41.7989 13.4475 40.7412 12.9506 39.4171 12.9506C38.641 12.9506 37.9562 13.1388 37.3626 13.5153C36.769 13.8918 36.3125 14.4038 35.9929 15.0513V7.19058L34.8058 7.48423C33.5731 7.77035 32.7512 8.01128 32.3403 8.20704V8.68144L32.3631 24.0414C33.6872 24.5383 35.0873 24.7868 36.5636 24.7868C38.7856 24.7868 40.551 24.177 41.8598 22.9572C43.1534 21.7675 43.8002 20.1939 43.8002 18.2362C43.8002 16.7153 43.397 15.4503 42.5904 14.4414ZM39.2574 20.992C38.7095 21.5642 37.9562 21.8503 36.9974 21.8503C36.7082 21.8503 36.3733 21.8127 35.9929 21.7374V18.8235L36.0157 18.8687C36.0157 18.0254 36.2364 17.3177 36.6777 16.7454C37.1039 16.1882 37.6214 15.9097 38.2301 15.9097C38.7932 15.9097 39.2422 16.1581 39.577 16.655C39.9118 17.152 40.0792 17.7995 40.0792 18.5977C40.0792 19.6066 39.8052 20.4047 39.2574 20.992Z" fill="#DEDEDE"/>
<path d="M52.901 17.4005C53.5402 15.744 53.8369 14.2607 53.7913 12.9506C52.8325 12.9506 51.9498 13.199 51.1432 13.696C50.3518 14.1779 49.7658 14.8781 49.3854 15.7967C49.218 14.848 48.9669 13.9143 48.6321 12.9958C48.5864 13.0108 48.32 13.071 47.8331 13.1765C47.4221 13.2668 47.1254 13.3346 46.9428 13.3798C46.4101 13.5153 45.9231 13.6734 45.4817 13.8541C45.7404 15.3148 45.8698 16.6927 45.8698 17.9878V20.6983C45.8698 22.7614 45.9003 24.0414 45.9611 24.5383C47.0721 24.6438 48.3048 24.6061 49.6593 24.4254C49.568 23.6574 49.5224 22.415 49.5224 20.6983C49.5224 19.2527 49.842 18.2212 50.4812 17.6038C51.1203 17.0014 51.927 16.9337 52.901 17.4005Z" fill="#DEDEDE"/>
<path fill-rule="evenodd" clip-rule="evenodd" d="M60.867 21.9181C61.5518 21.9181 62.2062 21.8202 62.8303 21.6245C63.4695 21.4137 63.9641 21.1577 64.3141 20.8565C64.3902 21.4137 64.3141 22.257 64.0858 23.3863C63.7358 23.7478 63.1575 24.0715 62.3509 24.3577C61.5899 24.6588 60.7529 24.8094 59.8397 24.8094C58.1656 24.8094 56.8035 24.2899 55.7534 23.2508C54.7033 22.2268 54.1782 20.8339 54.1782 19.072C54.1782 17.295 54.7641 15.8268 55.936 14.6673C57.0927 13.5228 58.5309 12.9506 60.2506 12.9506C61.6356 12.9506 62.7085 13.3497 63.4695 14.1478C64.2304 14.9308 64.6109 15.9925 64.6109 17.3327C64.6109 18.176 64.4816 18.8537 64.2228 19.3657L57.6254 19.456C57.8841 21.0974 58.9646 21.9181 60.867 21.9181ZM59.7941 15.616C59.2614 15.616 58.7972 15.8268 58.4016 16.2485C58.0211 16.6701 57.7699 17.2273 57.6482 17.92L61.1182 17.7845C61.1486 17.4532 61.1638 17.2198 61.1638 17.0842C61.1638 16.1054 60.7072 15.616 59.7941 15.616Z" fill="#DEDEDE"/>
<path fill-rule="evenodd" clip-rule="evenodd" d="M73.3973 24.7642C74.5691 24.689 75.5888 24.4405 76.4564 24.0188C76.0911 23.1303 75.9084 21.7826 75.9084 19.9755V17.6263C75.9084 14.5092 74.3713 12.9506 71.2971 12.9506C70.5513 12.9506 69.8665 13.0259 69.2425 13.1765C68.1467 13.4325 67.2184 13.839 66.4574 14.3962C66.4726 15.2998 66.5868 16.1054 66.7998 16.8132C67.8195 16.1506 68.9381 15.8193 70.1556 15.8193C71.6319 15.8193 72.37 16.527 72.37 17.9426V17.9878C71.883 17.9577 71.5101 17.9426 71.2514 17.9426C69.5164 17.9426 68.1467 18.289 67.1423 18.9817C66.153 19.6743 65.6584 20.6155 65.6584 21.8052C65.6584 22.7087 65.9476 23.439 66.5259 23.9962C67.1042 24.5383 67.8576 24.8094 68.7859 24.8094C69.5621 24.8094 70.2774 24.6137 70.9318 24.2221C71.6015 23.8155 72.1189 23.2583 72.4841 22.5506C72.682 23.439 72.9864 24.177 73.3973 24.7642ZM71.434 21.4438C71.0536 21.8503 70.6046 22.0537 70.0871 22.0537C69.7523 22.0537 69.4708 21.9633 69.2425 21.7826C69.0143 21.5868 68.9001 21.3383 68.9001 21.0372C68.9001 20.1035 69.7523 19.6367 71.4568 19.6367C71.8221 19.6367 72.0885 19.6442 72.2559 19.6593C72.1037 20.4273 71.8297 21.0221 71.434 21.4438Z" fill="#DEDEDE"/>
<path d="M89.7859 13.2668L86.2931 18.0555L90.6534 24.2899C89.1924 24.5308 87.7695 24.6438 86.3845 24.6287L83.4164 19.5238L82.3209 19.7497V20.6983C82.3209 22.415 82.3662 23.6574 82.4575 24.4254C81.1186 24.6061 79.8857 24.6438 78.7596 24.5383C78.6987 24.0414 78.6682 22.7614 78.6682 20.6983V8.20704C79.0944 8.01128 79.9238 7.77035 81.1566 7.48423C81.4 7.424 81.7881 7.32612 82.3209 7.19058V17.3101L83.5304 17.039L86.0643 13.1313C87.2674 13.2217 88.5076 13.2668 89.7859 13.2668Z" fill="#DEDEDE"/>
<path fill-rule="evenodd" clip-rule="evenodd" d="M99.7621 24.7642C100.934 24.689 101.953 24.4405 102.821 24.0188C102.456 23.1303 102.273 21.7826 102.273 19.9755V7.19058C102.227 7.20565 102.129 7.23577 101.977 7.28094C101.839 7.31105 101.694 7.3487 101.542 7.39388L101.086 7.48423C99.8535 7.77035 99.0312 8.01128 98.6205 8.20704V12.9732C98.4984 12.9581 98.3165 12.9506 98.0724 12.9506C95.8659 12.9506 94.1082 13.553 92.7992 14.7577C91.4903 15.9774 90.8362 17.5586 90.8362 19.5012C90.8362 21.0372 91.2396 22.3097 92.0457 23.3186C92.8372 24.3125 93.9029 24.8094 95.2418 24.8094C96.0794 24.8094 96.8095 24.6137 97.4336 24.2221C98.0578 23.8306 98.5292 23.2885 98.8485 22.5958C99.0466 23.439 99.3514 24.1619 99.7621 24.7642ZM97.9818 20.992C97.5549 21.5492 97.0302 21.8278 96.406 21.8278C95.8433 21.8278 95.3938 21.5793 95.059 21.0823C94.7243 20.5854 94.557 19.9379 94.557 19.1398C94.557 18.1007 94.831 17.28 95.3792 16.6777C95.9266 16.0753 96.6801 15.7741 97.639 15.7741C97.9131 15.7741 98.2397 15.8118 98.6205 15.887V18.8687C98.6205 19.727 98.4079 20.4348 97.9818 20.992Z" fill="#DEDEDE"/>
<path fill-rule="evenodd" clip-rule="evenodd" d="M115.275 24.0188C114.408 24.4405 113.388 24.689 112.216 24.7642C111.806 24.177 111.501 23.439 111.304 22.5506C110.938 23.2583 110.421 23.8155 109.751 24.2221C109.096 24.6137 108.381 24.8094 107.605 24.8094C106.676 24.8094 105.923 24.5383 105.345 23.9962C104.767 23.439 104.477 22.7087 104.477 21.8052C104.477 20.6155 104.972 19.6743 105.961 18.9817C106.966 18.289 108.336 17.9426 110.071 17.9426C110.329 17.9426 110.702 17.9577 111.189 17.9878V17.9426C111.189 16.527 110.451 15.8193 108.975 15.8193C107.757 15.8193 106.638 16.1506 105.619 16.8132C105.405 16.1054 105.291 15.2998 105.276 14.3962C106.038 13.839 106.966 13.4325 108.061 13.1765C108.686 13.0259 109.37 12.9506 110.116 12.9506C113.191 12.9506 114.728 14.5092 114.728 17.6263V19.9755C114.728 21.7826 114.91 23.1303 115.275 24.0188ZM108.906 22.0537C109.424 22.0537 109.872 21.8503 110.253 21.4438C110.649 21.0221 110.923 20.4273 111.075 19.6593C110.907 19.6442 110.641 19.6367 110.276 19.6367C108.572 19.6367 107.719 20.1035 107.719 21.0372C107.719 21.3383 107.833 21.5868 108.061 21.7826C108.29 21.9633 108.572 22.0537 108.906 22.0537Z" fill="#DEDEDE"/>
<path d="M128.902 24.335C128.78 23.9285 128.719 22.7162 128.719 20.6983V17.265C128.719 15.8946 128.392 14.833 127.737 14.08C127.099 13.327 126.2 12.9506 125.043 12.9506C124.146 12.9506 123.332 13.184 122.601 13.6508C121.885 14.1177 121.368 14.7802 121.049 15.6386C120.881 14.6899 120.638 13.809 120.318 12.9958C120.272 13.0108 120.006 13.071 119.519 13.1765C119.001 13.297 118.713 13.3647 118.651 13.3798C118.134 13.5002 117.64 13.6583 117.168 13.8541C117.426 15.3148 117.556 16.6927 117.556 17.9878V20.6983C117.556 22.7614 117.587 24.0414 117.647 24.5383C118.758 24.6438 119.991 24.6061 121.345 24.4254C121.254 23.6574 121.209 22.415 121.209 20.6983V19.1398C121.209 18.2362 121.445 17.5059 121.916 16.9487C122.373 16.3915 122.936 16.113 123.606 16.113C124.062 16.113 124.42 16.2635 124.679 16.5647C124.938 16.8659 125.067 17.2875 125.067 17.8297V20.6983C125.067 22.9421 125.097 24.2522 125.158 24.6287C126.39 24.6588 127.639 24.561 128.902 24.335Z" fill="#DEDEDE"/>
<path d="M136.025 24.8094C134.397 24.8094 133.073 24.2823 132.053 23.2282C131.034 22.2042 130.523 20.8339 130.523 19.1172C130.523 17.28 131.125 15.7892 132.327 14.6447C133.514 13.5153 135.006 12.9506 136.802 12.9506C138.111 12.9506 139.183 13.199 140.02 13.696C140.051 14.72 139.83 15.8118 139.358 16.9713C138.673 16.2635 137.844 15.9097 136.87 15.9097C136.063 15.9097 135.417 16.1807 134.93 16.7228C134.442 17.2499 134.199 17.9426 134.199 18.801C134.199 19.7045 134.465 20.4122 134.998 20.9242C135.546 21.4212 136.261 21.6697 137.144 21.6697C137.692 21.6697 138.24 21.5718 138.787 21.376C139.351 21.1802 139.777 20.9543 140.065 20.6983C140.142 21.3459 140.058 22.287 139.815 23.5219C138.887 24.3802 137.623 24.8094 136.025 24.8094Z" fill="#DEDEDE"/>
<path fill-rule="evenodd" clip-rule="evenodd" d="M149.515 21.6245C148.89 21.8202 148.236 21.9181 147.552 21.9181C145.649 21.9181 144.568 21.0974 144.309 19.456L150.907 19.3657C151.166 18.8537 151.295 18.176 151.295 17.3327C151.295 15.9925 150.915 14.9308 150.153 14.1478C149.393 13.3497 148.32 12.9506 146.935 12.9506C145.215 12.9506 143.777 13.5228 142.62 14.6673C141.448 15.8268 140.863 17.295 140.863 19.072C140.863 20.8339 141.388 22.2268 142.438 23.2508C143.488 24.2899 144.85 24.8094 146.524 24.8094C147.437 24.8094 148.274 24.6588 149.035 24.3577C149.842 24.0715 150.42 23.7478 150.77 23.3863C150.998 22.257 151.074 21.4137 150.998 20.8565C150.648 21.1577 150.153 21.4137 149.515 21.6245ZM145.086 16.2485C145.482 15.8268 145.946 15.616 146.479 15.616C147.392 15.616 147.848 16.1054 147.848 17.0842C147.848 17.2198 147.833 17.4532 147.802 17.7845L144.332 17.92C144.454 17.2273 144.706 16.6701 145.086 16.2485Z" fill="#DEDEDE"/>
</g>
<defs>
<clipPath id="clip0_3_787">
<rect width="152" height="32" fill="white"/>
</clipPath>
</defs>
</svg>
