<svg width="81" height="81" viewBox="0 0 81 81" fill="none" xmlns="http://www.w3.org/2000/svg">
<path d="M23 55.4597C23 56.8602 24.1041 58 25.4609 58H55.5391C56.8959 58 58 56.8602 58 55.4597V25.5403C58 24.1398 56.8959 23 55.5391 23H25.4609C24.8085 23.0007 24.1829 23.2686 23.7216 23.7449C23.2602 24.2211 23.0007 24.8668 23 25.5403V55.4597ZM57.4531 55.4597C57.4531 56.5492 56.5945 57.4355 55.5391 57.4355H25.4609C24.4055 57.4355 23.5469 56.5492 23.5469 55.4597V28.6452H57.4531V55.4597ZM23.5469 25.5403C23.5469 24.4508 24.4055 23.5645 25.4609 23.5645H55.5391C56.5945 23.5645 57.4531 24.4508 57.4531 25.5403V28.0806H23.5469V25.5403Z" fill="#A9A9A9"/>
<circle cx="40.5" cy="40.5" r="39.75" stroke="#484E53" stroke-width="1.5"/>
<path d="M43.7839 25.5564H26.8749C26.8021 25.5564 26.7323 25.5859 26.6809 25.6384C26.6294 25.6909 26.6005 25.7621 26.6005 25.8364C26.6005 25.9106 26.6294 25.9818 26.6809 26.0343C26.7323 26.0868 26.8021 26.1163 26.8749 26.1163H43.7839C43.8567 26.1163 43.9265 26.0868 43.9779 26.0343C44.0294 25.9818 44.0583 25.9106 44.0583 25.8364C44.0583 25.7621 44.0294 25.6909 43.9779 25.6384C43.9265 25.5859 43.8567 25.5564 43.7839 25.5564ZM47.4893 24.75C46.9021 24.75 46.4246 25.2372 46.4246 25.8364C46.4246 26.4355 46.9021 26.9227 47.4893 26.9227C48.0765 26.9227 48.5545 26.4355 48.5545 25.8364C48.5545 25.2372 48.0765 24.75 47.4893 24.75ZM47.4893 26.3627C47.3566 26.3565 47.2313 26.2983 47.1396 26.2003C47.0479 26.1022 46.9967 25.9719 46.9967 25.8364C46.9967 25.7008 47.0479 25.5705 47.1396 25.4724C47.2313 25.3744 47.3566 25.3162 47.4893 25.31C47.7691 25.31 48.0051 25.5508 48.0051 25.8364C48.0051 26.1264 47.7741 26.3627 47.4893 26.3627ZM50.8385 24.75C50.2513 24.75 49.7738 25.2372 49.7738 25.8364C49.7738 26.4355 50.2513 26.9227 50.8385 26.9227C51.4257 26.9227 51.9031 26.4355 51.9031 25.8364C51.9031 25.2372 51.4257 24.75 50.8385 24.75ZM50.8385 26.3627C50.7058 26.3565 50.5805 26.2983 50.4888 26.2003C50.3971 26.1022 50.3459 25.9719 50.3459 25.8364C50.3459 25.7008 50.3971 25.5705 50.4888 25.4724C50.5805 25.3744 50.7058 25.3162 50.8385 25.31C51.1184 25.31 51.3543 25.5508 51.3543 25.8364C51.3543 26.1264 51.1233 26.3627 50.8385 26.3627ZM54.1882 24.75C53.601 24.75 53.1236 25.2372 53.1236 25.8364C53.1236 26.4355 53.601 26.9227 54.1882 26.9227C54.7754 26.9227 55.2529 26.4355 55.2529 25.8364C55.2529 25.2372 54.7754 24.75 54.1882 24.75ZM54.1882 26.3627C54.0555 26.3565 53.9303 26.2983 53.8386 26.2003C53.7468 26.1022 53.6956 25.9719 53.6956 25.8364C53.6956 25.7008 53.7468 25.5705 53.8386 25.4724C53.9303 25.3744 54.0555 25.3162 54.1882 25.31C54.4676 25.31 54.7041 25.5508 54.7041 25.8364C54.7041 26.1264 54.4725 26.3627 54.1882 26.3627ZM25.8349 35.2854H34.3575C34.4303 35.2854 34.5001 35.2559 34.5515 35.2034C34.603 35.1508 34.6319 35.0796 34.6319 35.0054C34.5254 30.931 34.8651 30.3156 34.3575 30.3156H25.8349C25.7622 30.3156 25.6924 30.3451 25.6409 30.3976C25.5895 30.4501 25.5605 30.5213 25.5605 30.5956V35.0054C25.5605 35.0796 25.5895 35.1508 25.6409 35.2034C25.6924 35.2559 25.7622 35.2854 25.8349 35.2854ZM26.1093 30.8761H34.0831V34.7259H26.1093V30.8761ZM34.3575 36.6859H28.5788C28.5061 36.6859 28.4363 36.7154 28.3848 36.7679C28.3334 36.8204 28.3044 36.8916 28.3044 36.9658C28.3044 37.0401 28.3334 37.1113 28.3848 37.1638C28.4363 37.2163 28.5061 37.2458 28.5788 37.2458H34.3575C34.4303 37.2458 34.5001 37.2163 34.5515 37.1638C34.603 37.1113 34.6319 37.0401 34.6319 36.9658C34.6319 36.8916 34.603 36.8204 34.5515 36.7679C34.5001 36.7154 34.4303 36.6859 34.3575 36.6859ZM25.8349 39.2057H34.3575C34.4303 39.2057 34.5001 39.1762 34.5515 39.1237C34.603 39.0712 34.6319 39 34.6319 38.9258C34.6319 38.8515 34.603 38.7803 34.5515 38.7278C34.5001 38.6753 34.4303 38.6458 34.3575 38.6458H25.8349C25.7622 38.6458 25.6924 38.6753 25.6409 38.7278C25.5895 38.7803 25.5605 38.8515 25.5605 38.9258C25.5605 39 25.5895 39.0712 25.6409 39.1237C25.6924 39.1762 25.7622 39.2057 25.8349 39.2057ZM25.8349 41.1656H31.7283C31.8011 41.1656 31.8709 41.1362 31.9223 41.0836C31.9738 41.0311 32.0027 40.9599 32.0027 40.8857C32.0027 40.8114 31.9738 40.7402 31.9223 40.6877C31.8709 40.6352 31.8011 40.6057 31.7283 40.6057H25.8349C25.7622 40.6057 25.6924 40.6352 25.6409 40.6877C25.5895 40.7402 25.5605 40.8114 25.5605 40.8857C25.5605 40.9599 25.5895 41.0311 25.6409 41.0836C25.6924 41.1362 25.7622 41.1656 25.8349 41.1656ZM45.1877 36.6859H39.409C39.3363 36.6859 39.2665 36.7154 39.215 36.7679C39.1635 36.8204 39.1346 36.8916 39.1346 36.9658C39.1346 37.0401 39.1635 37.1113 39.215 37.1638C39.2665 37.2163 39.3363 37.2458 39.409 37.2458H45.1877C45.2605 37.2458 45.3302 37.2163 45.3817 37.1638C45.4332 37.1113 45.4621 37.0401 45.4621 36.9658C45.4621 36.8916 45.4332 36.8204 45.3817 36.7679C45.3302 36.7154 45.2605 36.6859 45.1877 36.6859ZM36.6651 39.2057H45.1877C45.2605 39.2057 45.3302 39.1762 45.3817 39.1237C45.4332 39.0712 45.4621 39 45.4621 38.9258C45.4621 38.8515 45.4332 38.7803 45.3817 38.7278C45.3302 38.6753 45.2605 38.6458 45.1877 38.6458H36.6651C36.5923 38.6458 36.5226 38.6753 36.4711 38.7278C36.4196 38.7803 36.3907 38.8515 36.3907 38.9258C36.3907 39 36.4196 39.0712 36.4711 39.1237C36.5226 39.1762 36.5923 39.2057 36.6651 39.2057ZM36.6651 41.1656H42.5585C42.6312 41.1656 42.701 41.1362 42.7525 41.0836C42.804 41.0311 42.8329 40.9599 42.8329 40.8857C42.8329 40.8114 42.804 40.7402 42.7525 40.6877C42.701 40.6352 42.6312 40.6057 42.5585 40.6057H36.6651C36.5923 40.6057 36.5226 40.6352 36.4711 40.6877C36.4196 40.7402 36.3907 40.8114 36.3907 40.8857C36.3907 40.9599 36.4196 41.0311 36.4711 41.0836C36.5226 41.1362 36.5923 41.1656 36.6651 41.1656ZM56.0179 36.6859H50.2392C50.1664 36.6859 50.0966 36.7154 50.0452 36.7679C49.9937 36.8204 49.9648 36.8916 49.9648 36.9658C49.9648 37.0401 49.9937 37.1113 50.0452 37.1638C50.0966 37.2163 50.1664 37.2458 50.2392 37.2458H56.0179C56.0906 37.2458 56.1604 37.2163 56.2119 37.1638C56.2633 37.1113 56.2923 37.0401 56.2923 36.9658C56.2923 36.8916 56.2633 36.8204 56.2119 36.7679C56.1604 36.7154 56.0906 36.6859 56.0179 36.6859ZM47.4953 39.2057H56.0179C56.0906 39.2057 56.1604 39.1762 56.2119 39.1237C56.2633 39.0712 56.2923 39 56.2923 38.9258C56.2923 38.8515 56.2633 38.7803 56.2119 38.7278C56.1604 38.6753 56.0906 38.6458 56.0179 38.6458H47.4953C47.4225 38.6458 47.3527 38.6753 47.3013 38.7278C47.2498 38.7803 47.2209 38.8515 47.2209 38.9258C47.2209 39 47.2498 39.0712 47.3013 39.1237C47.3527 39.1762 47.4225 39.2057 47.4953 39.2057ZM47.4953 41.1656H53.3892C53.462 41.1656 53.5318 41.1362 53.5832 41.0836C53.6347 41.0311 53.6636 40.9599 53.6636 40.8857C53.6636 40.8114 53.6347 40.7402 53.5832 40.6877C53.5318 40.6352 53.462 40.6057 53.3892 40.6057H47.4953C47.4225 40.6057 47.3527 40.6352 47.3013 40.6877C47.2498 40.7402 47.2209 40.8114 47.2209 40.8857C47.2209 40.9599 47.2498 41.0311 47.3013 41.0836C47.3527 41.1362 47.4225 41.1656 47.4953 41.1656ZM47.4953 35.2859H56.0179C56.0906 35.2859 56.1604 35.2564 56.2119 35.2039C56.2633 35.1514 56.2923 35.0802 56.2923 35.0059V30.5961C56.2923 30.5219 56.2633 30.4507 56.2119 30.3982C56.1604 30.3456 56.0906 30.3161 56.0179 30.3161H47.4953C47.4225 30.3161 47.3527 30.3456 47.3013 30.3982C47.2498 30.4507 47.2209 30.5219 47.2209 30.5961V35.0059C47.2209 35.0802 47.2498 35.1514 47.3013 35.2039C47.3527 35.2564 47.4225 35.2859 47.4953 35.2859ZM47.7697 30.8761H55.7435V34.7259H47.7697V30.8761ZM36.6651 35.2859H45.1877C45.2605 35.2859 45.3302 35.2564 45.3817 35.2039C45.4332 35.1514 45.4621 35.0802 45.4621 35.0059V30.5961C45.4621 30.5219 45.4332 30.4507 45.3817 30.3982C45.3302 30.3456 45.2605 30.3161 45.1877 30.3161H36.6651C36.5923 30.3161 36.5226 30.3456 36.4711 30.3982C36.4196 30.4507 36.3907 30.5219 36.3907 30.5961V35.0059C36.3907 35.0802 36.4196 35.1514 36.4711 35.2039C36.5226 35.2564 36.5923 35.2859 36.6651 35.2859ZM36.9395 30.8761H44.9133V34.7259H36.9395V30.8761ZM25.8349 47.5354H45.1877C45.2605 47.5354 45.3302 47.5059 45.3817 47.4534C45.4332 47.4008 45.4621 47.3296 45.4621 47.2554V42.8484C45.4621 42.7741 45.4332 42.7029 45.3817 42.6504C45.3302 42.5979 45.2605 42.5684 45.1877 42.5684H25.8349C25.7622 42.5684 25.6924 42.5979 25.6409 42.6504C25.5895 42.7029 25.5605 42.7741 25.5605 42.8484V47.2554C25.5605 47.3296 25.5895 47.4008 25.6409 47.4534C25.6924 47.5059 25.7622 47.5354 25.8349 47.5354ZM26.1093 43.1284H44.9133V46.9754H26.1093V43.1284ZM25.8349 49.4953H45.1877C45.2605 49.4953 45.3302 49.4658 45.3817 49.4133C45.4332 49.3608 45.4621 49.2895 45.4621 49.2153C45.4621 49.141 45.4332 49.0698 45.3817 49.0173C45.3302 48.9648 45.2605 48.9353 45.1877 48.9353H25.8349C25.7622 48.9353 25.6924 48.9648 25.6409 49.0173C25.5895 49.0698 25.5605 49.141 25.5605 49.2153C25.5605 49.2895 25.5895 49.3608 25.6409 49.4133C25.6924 49.4658 25.7622 49.4953 25.8349 49.4953ZM25.8349 51.4552H45.1877C45.2605 51.4552 45.3302 51.4257 45.3817 51.3732C45.4332 51.3207 45.4621 51.2494 45.4621 51.1752C45.4621 51.1009 45.4332 51.0297 45.3817 50.9772C45.3302 50.9247 45.2605 50.8952 45.1877 50.8952H25.8349C25.7622 50.8952 25.6924 50.9247 25.6409 50.9772C25.5895 51.0297 25.5605 51.1009 25.5605 51.1752C25.5605 51.2494 25.5895 51.3207 25.6409 51.3732C25.6924 51.4257 25.7622 51.4552 25.8349 51.4552ZM25.8349 53.4151H42.4438C42.5166 53.4151 42.5863 53.3856 42.6378 53.3331C42.6893 53.2806 42.7182 53.2094 42.7182 53.1351C42.7182 53.0608 42.6893 52.9896 42.6378 52.9371C42.5863 52.8846 42.5166 52.8551 42.4438 52.8551H25.8349C25.7622 52.8551 25.6924 52.8846 25.6409 52.9371C25.5895 52.9896 25.5605 53.0608 25.5605 53.1351C25.5605 53.2094 25.5895 53.2806 25.6409 53.3331C25.6924 53.3856 25.7622 53.4151 25.8349 53.4151ZM25.8349 55.375H42.4438C42.5166 55.375 42.5863 55.3455 42.6378 55.293C42.6893 55.2405 42.7182 55.1693 42.7182 55.095C42.7182 55.0208 42.6893 54.9495 42.6378 54.897C42.5863 54.8445 42.5166 54.815 42.4438 54.815H25.8349C25.7622 54.815 25.6924 54.8445 25.6409 54.897C25.5895 54.9495 25.5605 55.0208 25.5605 55.095C25.5605 55.1693 25.5895 55.2405 25.6409 55.293C25.6924 55.3455 25.7622 55.375 25.8349 55.375ZM47.4953 55.375H56.0179C56.0906 55.375 56.1604 55.3455 56.2119 55.293C56.2633 55.2405 56.2923 55.1693 56.2923 55.095V42.8484C56.2923 42.7741 56.2633 42.7029 56.2119 42.6504C56.1604 42.5979 56.0906 42.5684 56.0179 42.5684H47.4953C47.4225 42.5684 47.3527 42.5979 47.3013 42.6504C47.2498 42.7029 47.2209 42.7741 47.2209 42.8484V55.095C47.2209 55.1693 47.2498 55.2405 47.3013 55.293C47.3527 55.3455 47.4225 55.375 47.4953 55.375ZM47.7697 43.1284H55.7435V54.815H47.7697V43.1284Z" fill="#A9A9A9"/>
</svg>
