<svg width="81" height="81" viewBox="0 0 81 81" fill="none" xmlns="http://www.w3.org/2000/svg">
<circle cx="40.5" cy="40.5" r="39.75" stroke="#484E53" stroke-width="1.5"/>
<path d="M57.6089 22.1025H23.3911C23.2873 22.1025 23.1879 22.1504 23.1145 22.2357C23.0412 22.3209 23 22.4365 23 22.5571V56.648C23 56.7685 23.0412 56.8842 23.1145 56.9694C23.1879 57.0546 23.2873 57.1025 23.3911 57.1025H57.6089C57.7127 57.1025 57.8121 57.0546 57.8855 56.9694C57.9588 56.8842 58 56.7685 58 56.648V22.5571C58 22.4365 57.9588 22.3209 57.8855 22.2357C57.8121 22.1504 57.7127 22.1025 57.6089 22.1025ZM23.7821 23.0116H28.7017V28.9207H23.7821V23.0116ZM57.2179 56.1935H23.7821V29.8298H57.2179V56.1935ZM57.2179 28.9207H29.4838V23.0116H57.2179V28.9207Z" fill="#A9A9A9"/>
<path d="M44.0774 44.0027C44.3561 44.0054 44.6334 43.9563 44.8987 43.8572C45.1819 43.7549 45.4449 43.5883 45.6723 43.367C45.8997 43.1456 46.087 42.874 46.2234 42.5679C46.3598 42.2618 46.4426 41.9272 46.4669 41.5836C46.4913 41.24 46.4567 40.8943 46.3651 40.5663L48.3674 31.8754C48.3928 31.761 48.3788 31.6395 48.3284 31.5368C48.278 31.4342 48.1952 31.3583 48.0975 31.3254L46.9557 30.9663C46.8577 30.9336 46.7525 30.9466 46.6627 31.0026C46.5728 31.0587 46.5053 31.1533 46.4746 31.2663L44.1948 39.6027C43.766 39.7569 43.3959 40.0779 43.1467 40.5118C42.7087 41.1072 42.4037 41.4572 41.9422 41.3027C41.8746 41.2811 41.8033 41.2811 41.7356 41.3026C41.668 41.324 41.6066 41.3663 41.5578 41.4248C41.509 41.4834 41.4747 41.5561 41.4584 41.6354C41.4421 41.7147 41.4444 41.7976 41.4651 41.8754C41.6547 42.5028 42.0087 43.0454 42.4772 43.427C42.9457 43.8085 43.5054 44.0099 44.0774 44.0027ZM47.1043 31.9527L47.4953 32.0891L45.7003 39.9891L44.9691 39.7436L47.1043 31.9527ZM43.7411 41.0709C44.0188 40.6981 44.23 40.4391 44.3668 40.4845L45.6417 40.9391C45.746 41.3658 45.7015 41.8231 45.5178 42.2119C45.334 42.6007 45.0259 42.8897 44.6601 43.0163C44.2691 43.1633 43.8482 43.1633 43.4572 43.0165C43.0662 42.8696 42.725 42.5833 42.4819 42.1981C42.9943 41.9879 43.4354 41.593 43.7411 41.0709ZM50.5925 42.33L53.721 37.2663C53.7691 37.1889 53.7949 37.0959 53.7949 37.0004C53.7949 36.905 53.7691 36.8119 53.721 36.7345L50.5925 31.6663L49.959 32.1981L52.9272 36.9981L49.959 41.8072L50.5925 42.33ZM40.1825 42.7163L40.816 42.1845L37.6132 37.0027L40.816 31.8254L40.1825 31.2936L36.8154 36.7481C36.7674 36.8256 36.7415 36.9186 36.7415 37.0141C36.7415 37.1095 36.7674 37.2025 36.8154 37.28L40.1825 42.7163ZM36.835 47.8709H55.3126C55.4163 47.8709 55.5158 47.823 55.5892 47.7377C55.6625 47.6525 55.7037 47.5369 55.7037 47.4163V45.2845C55.7037 45.164 55.6625 45.0483 55.5892 44.9631C55.5158 44.8779 55.4163 44.83 55.3126 44.83H36.835C36.7313 44.83 36.6318 44.8779 36.5585 44.9631C36.4851 45.0483 36.4439 45.164 36.4439 45.2845V47.4163C36.4439 47.5369 36.4851 47.6525 36.5585 47.7377C36.6318 47.823 36.7313 47.8709 36.835 47.8709ZM37.226 45.7391H54.9216V46.9618H37.226V45.7391ZM36.835 52.8436H51.7892C51.8929 52.8436 51.9924 52.7957 52.0657 52.7105C52.139 52.6252 52.1802 52.5096 52.1802 52.3891V50.2572C52.1802 50.1367 52.139 50.0211 52.0657 49.9358C51.9924 49.8506 51.8929 49.8027 51.7892 49.8027H36.835C36.7313 49.8027 36.6318 49.8506 36.5585 49.9358C36.4851 50.0211 36.4439 50.1367 36.4439 50.2572V52.3891C36.4439 52.5096 36.4851 52.6252 36.5585 52.7105C36.6318 52.7957 36.7313 52.8436 36.835 52.8436ZM37.226 50.7118H51.3981V51.9345H37.226V50.7118ZM25.4434 32.5027V42.4436C25.4434 42.5642 25.4846 42.6798 25.5579 42.765C25.6312 42.8503 25.7307 42.8981 25.8344 42.8981H34.3908C34.4946 42.8981 34.594 42.8503 34.6674 42.765C34.7407 42.6798 34.7819 42.5642 34.7819 42.4436V32.5027C34.7819 32.3821 34.7407 32.2665 34.6674 32.1813C34.594 32.096 34.4946 32.0481 34.3908 32.0481H25.8344C25.7307 32.0481 25.6312 32.096 25.5579 32.1813C25.4846 32.2665 25.4434 32.3821 25.4434 32.5027ZM26.2255 32.9572H33.9998V41.9891H26.2255V32.9572ZM34.3908 44.83H25.8344C25.7307 44.83 25.6312 44.8779 25.5579 44.9631C25.4846 45.0483 25.4434 45.164 25.4434 45.2845V53.8072C25.4434 53.9278 25.4846 54.0434 25.5579 54.1286C25.6312 54.2139 25.7307 54.2618 25.8344 54.2618H34.3908C34.4946 54.2618 34.594 54.2139 34.6674 54.1286C34.7407 54.0434 34.7819 53.9278 34.7819 53.8072V45.2845C34.7819 45.164 34.7407 45.0483 34.6674 44.9631C34.594 44.8779 34.4946 44.83 34.3908 44.83ZM33.3311 45.7391L30.1126 48.9481L26.8903 45.7391H33.3311ZM26.2255 46.2709L29.5104 49.5481L26.2255 52.8209V46.2709ZM26.8903 53.3527L30.1126 50.1436L33.3311 53.3527H26.8903ZM33.9998 52.8209L30.7227 49.5481L34.0115 46.2709L33.9998 52.8209ZM35.826 27.3845C35.8322 27.4209 35.8427 27.4561 35.8573 27.4891C35.874 27.5159 35.8971 27.5365 35.9238 27.5481C35.9643 27.5637 36.0064 27.5729 36.0489 27.5754H36.4635C36.5061 27.5733 36.5482 27.5641 36.5886 27.5481C36.6144 27.5345 36.6361 27.5124 36.6512 27.4845C36.6676 27.4541 36.6782 27.42 36.6825 27.3845L37.1322 25.2027L37.6093 27.3845C37.6137 27.4214 37.6243 27.457 37.6406 27.4891C37.6554 27.5179 37.6792 27.539 37.707 27.5481C37.7474 27.5641 37.7896 27.5733 37.8322 27.5754H38.2232C38.2646 27.573 38.3054 27.5638 38.3445 27.5481C38.3744 27.5391 38.4007 27.5182 38.4188 27.4891C38.4365 27.4574 38.4485 27.4218 38.454 27.3845L39.1344 24.3891C39.147 24.3369 39.1561 24.2837 39.1618 24.23C39.163 24.1989 39.1547 24.1683 39.1383 24.1436C39.1153 24.121 39.0863 24.1082 39.0562 24.1072H38.7316C38.7003 24.109 38.6697 24.1183 38.6417 24.1345C38.6321 24.1381 38.6234 24.144 38.6159 24.1518C38.6085 24.1597 38.6026 24.1693 38.5987 24.18C38.5964 24.2041 38.5964 24.2285 38.5987 24.2527L38.0746 26.8754L37.5154 24.2572C37.51 24.227 37.5008 24.1979 37.4881 24.1709C37.4769 24.1475 37.4588 24.1298 37.4372 24.1209C37.4055 24.1089 37.3727 24.1012 37.3394 24.0981H36.9797C36.9459 24.1001 36.9128 24.1094 36.8819 24.1254C36.8607 24.1328 36.8426 24.149 36.8311 24.1709C36.818 24.1974 36.81 24.2268 36.8076 24.2572L36.2797 26.8754L35.7596 24.2391C35.757 24.2107 35.7504 24.183 35.74 24.1572C35.7305 24.1379 35.7152 24.1234 35.697 24.1163C35.6659 24.1105 35.6342 24.1105 35.6031 24.1163H35.2473C35.2136 24.1178 35.1811 24.1304 35.1534 24.1527C35.1437 24.1637 35.1364 24.1774 35.1323 24.1924C35.1282 24.2075 35.1274 24.2235 35.13 24.2391C35.1259 24.2889 35.1259 24.3392 35.13 24.3891L35.826 27.3845ZM41.6059 27.3845C41.615 27.4205 41.6267 27.4555 41.6411 27.4891C41.657 27.5168 41.6804 27.5376 41.7076 27.5481C41.7481 27.5637 41.7902 27.5729 41.8327 27.5754H42.2473C42.2886 27.5734 42.3295 27.5642 42.3685 27.5481C42.396 27.5358 42.4193 27.5135 42.435 27.4845C42.4514 27.4541 42.462 27.42 42.4663 27.3845L42.916 25.2027L43.3931 27.3845C43.3956 27.4219 43.4064 27.4579 43.4244 27.4891C43.4392 27.5179 43.463 27.539 43.4908 27.5481C43.5312 27.5641 43.5734 27.5733 43.616 27.5754H44.007C44.0496 27.5729 44.0917 27.5637 44.1322 27.5481C44.1611 27.5367 44.1868 27.5162 44.2065 27.4891C44.2242 27.4574 44.2362 27.4218 44.2417 27.3845L44.9221 24.3891C44.9357 24.3374 44.9436 24.2839 44.9456 24.23C44.9507 24.2163 44.9533 24.2016 44.9533 24.1868C44.9533 24.1719 44.9507 24.1572 44.9456 24.1436C44.9226 24.121 44.8936 24.1082 44.8635 24.1072H44.5389C44.5076 24.109 44.477 24.1183 44.4489 24.1345C44.4394 24.1381 44.4306 24.144 44.4232 24.1518C44.4158 24.1597 44.4099 24.1693 44.4059 24.18C44.4037 24.2041 44.4037 24.2285 44.4059 24.2527L43.8584 26.8754L43.2992 24.2572C43.2938 24.227 43.2846 24.1979 43.2719 24.1709C43.2617 24.1604 43.2497 24.1527 43.2367 24.1481C43.2036 24.1362 43.1695 24.1286 43.135 24.1254H42.7948C42.7611 24.128 42.728 24.1372 42.697 24.1527C42.6869 24.1562 42.6776 24.1621 42.6696 24.1699C42.6615 24.1777 42.6549 24.1873 42.6501 24.1981C42.6373 24.2252 42.6281 24.2543 42.6227 24.2845L42.0635 26.8754L41.5434 24.2391C41.5389 24.2112 41.5324 24.1838 41.5238 24.1572C41.5143 24.1379 41.499 24.1234 41.4808 24.1163C41.4484 24.1101 41.4154 24.1101 41.383 24.1163H41.0311C40.9974 24.1178 40.9649 24.1304 40.9372 24.1527C40.9277 24.1641 40.9204 24.1776 40.9157 24.1925C40.911 24.2074 40.909 24.2232 40.9098 24.2391C40.9098 24.2754 40.9177 24.3254 40.9333 24.3891L41.6059 27.3845ZM47.3897 27.3845C47.3987 27.4205 47.4105 27.4555 47.4249 27.4891C47.4408 27.5168 47.4642 27.5376 47.4914 27.5481C47.5318 27.5641 47.5739 27.5733 47.6165 27.5754H48.0311C48.0724 27.573 48.1132 27.5638 48.1523 27.5481C48.1791 27.5346 48.2022 27.5125 48.2188 27.4845C48.2334 27.4532 48.244 27.4195 48.2501 27.3845L48.7115 25.2027L49.1847 27.3845C49.1909 27.4209 49.2014 27.4561 49.216 27.4891C49.2327 27.5159 49.2558 27.5365 49.2825 27.5481C49.3229 27.5637 49.365 27.5729 49.4076 27.5754H49.7987C49.8412 27.5729 49.8833 27.5637 49.9238 27.5481C49.9522 27.5378 49.9769 27.5171 49.9942 27.4891C50.0133 27.4577 50.0266 27.4221 50.0333 27.3845L50.7138 24.3891C50.7273 24.3374 50.7352 24.2839 50.7372 24.23C50.7423 24.2163 50.7449 24.2016 50.7449 24.1868C50.7449 24.1719 50.7423 24.1572 50.7372 24.1436C50.7134 24.1226 50.6849 24.11 50.6551 24.1072H50.3149C50.2824 24.1098 50.2507 24.119 50.221 24.1345C50.2026 24.1434 50.1874 24.1595 50.178 24.18C50.1758 24.2041 50.1758 24.2285 50.178 24.2527L49.6422 26.8754L49.0869 24.2572C49.0815 24.227 49.0723 24.1979 49.0596 24.1709C49.0475 24.1485 49.0297 24.131 49.0087 24.1209C48.9757 24.109 48.9416 24.1013 48.907 24.0981H48.5668C48.5331 24.1007 48.5001 24.1099 48.4691 24.1254C48.4485 24.1341 48.4307 24.15 48.4182 24.1709C48.4087 24.199 48.4009 24.2279 48.3948 24.2572L47.8473 26.8754L47.3272 24.2391C47.3307 24.2119 47.3307 24.1844 47.3272 24.1572C47.3221 24.1471 47.3154 24.1382 47.3073 24.1312C47.2992 24.1241 47.29 24.1191 47.2802 24.1163C47.2492 24.1096 47.2174 24.1096 47.1864 24.1163H46.8344C46.8008 24.1178 46.7682 24.1304 46.7406 24.1527C46.7311 24.1641 46.7237 24.1776 46.719 24.1925C46.7143 24.2074 46.7123 24.2232 46.7132 24.2391C46.7174 24.2897 46.7252 24.3399 46.7367 24.3891L47.3897 27.3845Z" fill="#A9A9A9"/>
</svg>
