<svg width="36" height="38" viewBox="0 0 36 38" fill="none" xmlns="http://www.w3.org/2000/svg">
<path d="M8.75644 10.6433C8.40888 10.4485 7.98851 10.4583 7.64961 10.6689C7.31071 10.8795 7.10318 11.26 7.10318 11.6708V26.4526C7.10318 27.0971 7.60531 27.6196 8.22472 27.6196C8.84413 27.6196 9.34626 27.0971 9.34626 26.4526V13.6246L17.413 18.1442C17.745 18.3302 18.1445 18.3302 18.4765 18.1442L26.5432 13.6246V26.4526C26.5432 27.0971 27.0454 27.6196 27.6648 27.6196C28.2842 27.6196 28.7863 27.0971 28.7863 26.4526V11.6708C28.7863 11.26 28.5788 10.8795 28.2399 10.6689C27.901 10.4583 27.4806 10.4485 27.1331 10.6433L17.9447 15.7913L8.75644 10.6433Z" fill="#C9C9C9"/>
<path fill-rule="evenodd" clip-rule="evenodd" d="M25.8862 5.79202C20.6024 5.30045 15.2871 5.30045 10.0034 5.79202L7.73436 6.00312C5.30044 6.22955 3.3339 8.1643 2.9804 10.6802C2.2357 15.9804 2.2357 21.3651 2.9804 26.6652C3.3339 29.1811 5.30044 31.1159 7.73436 31.3423L10.0034 31.5534C15.2871 32.045 20.6024 32.045 25.8862 31.5534L28.1552 31.3423C30.5891 31.1159 32.5556 29.1811 32.9091 26.6652C33.6538 21.3651 33.6538 15.9804 32.9091 10.6802C32.5556 8.1643 30.5891 6.22955 28.1552 6.00312L25.8862 5.79202ZM10.2031 8.11672C15.3539 7.63752 20.5356 7.63752 25.6864 8.11672L27.9554 8.32782C29.3553 8.45805 30.4863 9.57082 30.6896 11.0178C31.4029 16.0941 31.4029 21.2513 30.6896 26.3276C30.4863 27.7746 29.3553 28.8874 27.9554 29.0176L25.6864 29.2287C20.5356 29.7079 15.3539 29.7079 10.2031 29.2287L7.93412 29.0176C6.53426 28.8874 5.4032 27.7746 5.19989 26.3276C4.48665 21.2513 4.48665 16.0941 5.19989 11.0178C5.4032 9.57082 6.53426 8.45805 7.93412 8.32782L10.2031 8.11672Z" fill="#C9C9C9"/>
</svg>
