<svg width="41" height="41" viewBox="0 0 41 41" fill="none" xmlns="http://www.w3.org/2000/svg">
<rect x="0.75" y="0.75" width="39.5" height="39.5" rx="8.25" stroke="#484E53" stroke-width="1.5"/>
<path d="M25.7466 17.3568C25.7466 17.3568 23.9867 24.0027 23.8433 24.5513C23.7912 23.987 22.5005 12.0588 22.5005 12.0588C19.5021 12.0588 17.8986 14.6294 17.0513 17.3411C17.0513 17.3411 14.9133 24.0027 14.7307 24.567C14.7177 24.0497 14.4048 17.4195 14.4048 17.4195C14.2223 14.0965 11.6932 12.0745 9.64648 12.0745L12.1234 30.1471C15.2652 30.1314 16.96 27.5765 17.8465 24.8648C17.8465 24.8648 19.7368 18.9869 19.815 18.7205C19.828 18.9712 21.1708 30.1471 21.1708 30.1471C24.3257 30.1471 26.0204 27.7489 26.933 25.1313L31.3524 12.0745C28.2366 12.0745 26.594 14.6294 25.7466 17.3568Z" fill="#A9A9A9"/>
</svg>
