<svg width="43" height="41" viewBox="0 0 43 41" fill="none" xmlns="http://www.w3.org/2000/svg">
<rect x="0.75" y="0.75" width="41.5" height="39.5" rx="8.25" stroke="#484E53" stroke-width="1.5"/>
<path d="M32.8435 12.3615V12.3182C32.8053 12.1884 32.6907 12.1019 32.5761 12.1019H27.6106C27.4578 12.1451 27.3815 12.275 27.3815 12.4048V12.9241C27.3815 13.1837 27.5724 13.2702 27.687 13.3135C27.8398 13.4433 28.069 13.4433 28.069 13.4433L28.4891 13.4866C28.9093 13.4866 28.9857 13.5732 29.1003 13.7463C29.2149 13.8761 29.1385 14.2655 29.1003 14.4386L25.2043 25.8195L22.8743 19.8911L24.9751 15.0012C25.2043 14.4819 25.4717 14.0492 25.5481 13.8328C25.7008 13.5299 25.739 13.5299 26.2356 13.4866C26.5029 13.4866 26.6939 13.2702 26.6939 12.9673V12.4481C26.6939 12.4048 26.6939 12.3182 26.6557 12.275L26.6175 12.2317C26.5793 12.1451 26.4648 12.1019 26.3884 12.1019H22.7216C22.6452 12.1019 22.5688 12.1451 22.5306 12.1884C22.4924 12.2317 22.4542 12.3182 22.4542 12.4048V12.9241C22.416 13.1404 22.4924 13.2702 22.5688 13.3568C22.607 13.4001 22.6834 13.4866 22.798 13.4866L22.9889 13.5299C23.3709 13.5299 23.5237 13.6597 23.5237 13.6597C23.5619 13.703 23.6001 13.7895 23.3709 14.4386L21.9958 17.8139L20.7736 14.7415C20.6208 14.3521 20.3916 13.7463 20.3916 13.6164C20.3916 13.6164 20.4298 13.5732 20.659 13.5732H20.6972L20.85 13.5299C20.9264 13.5299 21.0409 13.4866 21.1173 13.4001C21.2319 13.2702 21.2319 13.1404 21.2319 13.0106V12.4481C21.2319 12.4048 21.2319 12.3615 21.1937 12.3182V12.275C21.1555 12.1451 21.0409 12.0586 20.9264 12.0586H17.0304C16.9158 12.0586 16.8012 12.1451 16.763 12.275V12.9673C16.763 13.3568 17.145 13.4433 17.2978 13.4866C17.7561 13.5732 17.7561 13.5732 18.2908 14.8281L18.4054 15.131C18.52 15.3906 18.7874 16.1263 18.7874 16.1263L20.3152 19.8478L20.6972 20.9296L18.7492 25.7762C18.0617 23.8722 15.388 16.8187 14.5477 14.2655C14.4331 13.9193 14.4331 13.7463 14.4331 13.703C14.4331 13.5732 14.6622 13.5299 14.815 13.5299L15.4644 13.4866C15.7699 13.4866 16.1137 13.3135 16.1137 12.9673V12.4481C16.1137 12.275 16.0373 12.1451 15.8845 12.1451L15.6935 12.1019H10.4607L10.3461 12.1451C10.2315 12.1884 10.1169 12.3182 10.1169 12.4481V12.9673C10.1169 13.1404 10.1933 13.4001 10.6899 13.4866C11.301 13.5299 11.492 13.6597 11.5684 13.703C11.7212 13.8761 11.9885 14.6117 12.0649 14.8714C12.7143 16.8187 13.7455 19.5881 14.7768 22.2278C15.6935 24.6944 16.6866 27.2475 17.2978 29.1083C17.3741 29.3679 17.6797 30.1468 18.2145 30.1468C18.6728 30.1468 19.0166 29.541 19.2457 29.1083C19.8187 27.8101 20.8882 25.0839 21.6139 23.2231C22.6834 26.1657 23.4091 28.113 23.791 29.065C24.0584 29.7574 24.364 30.1036 24.7459 30.1036C25.0897 30.1036 25.4335 29.7574 25.7008 29.065C26.9613 25.5599 30.6663 15.0012 30.7045 14.9146C30.8573 14.4386 31.0483 14.0924 31.3156 13.8328C31.5448 13.5732 31.9268 13.4433 32.4233 13.4433C32.6907 13.4433 32.8816 13.227 32.8816 12.9241V12.4481C32.8816 12.4048 32.8435 12.3615 32.8435 12.3615Z" fill="#A9A9A9"/>
</svg>
