<svg width="91" height="35" viewBox="0 0 91 35" fill="none" xmlns="http://www.w3.org/2000/svg">
<path d="M24.2879 19.598C25.3739 19.598 26.2543 18.7176 26.2543 17.6316C26.2543 16.5456 25.3739 15.6653 24.2879 15.6653C23.2019 15.6653 22.3215 16.5456 22.3215 17.6316C22.3215 18.7176 23.2019 19.598 24.2879 19.598Z" fill="white"/>
<path d="M24.9471 12.433V11.0769H23.6362V12.433C22.4827 12.5801 21.4107 13.106 20.5884 13.9282C19.7662 14.7505 19.2403 15.8225 19.0932 16.976H17.7371V18.2869H19.0932C19.2401 19.4404 19.766 20.5125 20.5883 21.3348C21.4106 22.157 22.4826 22.6829 23.6362 22.8299V24.186H24.9471V22.8299C26.1006 22.6829 27.1727 22.157 27.995 21.3348C28.8172 20.5125 29.3431 19.4404 29.4901 18.2869H30.8462V16.976H29.4901C29.343 15.8225 28.8171 14.7505 27.9948 13.9282C27.1726 13.106 26.1006 12.5801 24.9471 12.433ZM24.2916 21.5642C22.1227 21.5642 20.3589 19.8004 20.3589 17.6314C20.3589 15.4625 22.1227 13.6987 24.2916 13.6987C26.4605 13.6987 28.2244 15.4625 28.2244 17.6314C28.2244 19.8004 26.4605 21.5642 24.2916 21.5642Z" fill="white"/>
<path d="M43.1973 22.9605V15.2714H46.5497V29H43.3038V27.0046C42.2573 28.5477 40.8205 29.3193 38.9936 29.3193C37.5214 29.3193 36.3508 28.8936 35.4816 28.0422C34.6302 27.1731 34.2046 25.9492 34.2046 24.3706V15.2714H37.5569V23.8119C37.5569 25.5501 38.4172 26.4192 40.1377 26.4192C40.9891 26.4192 41.7074 26.1177 42.2927 25.5146C42.8958 24.8938 43.1973 24.0424 43.1973 22.9605ZM52.6 13.4888H49.3009V10.3493H52.6V13.4888ZM52.6266 29H49.2743V15.2714H52.6266V29ZM65.1191 17.054V10.0566H68.4715V29H65.2255V27.0844C64.2145 28.5743 62.7689 29.3193 60.8888 29.3193C58.9909 29.3193 57.4921 28.663 56.3924 27.3504C55.2749 26.0379 54.7162 24.2996 54.7162 22.1357C54.7162 19.9363 55.2749 18.1891 56.3924 16.8943C57.4744 15.5995 58.9732 14.9521 60.8888 14.9521C62.7335 14.9521 64.1436 15.6527 65.1191 17.054ZM58.1484 22.2421C58.1484 23.6611 58.4588 24.7342 59.0796 25.4614C59.7004 26.1886 60.5606 26.5523 61.6604 26.5523C62.7601 26.5523 63.6292 26.1709 64.2677 25.4082C64.8885 24.6455 65.1989 23.5547 65.1989 22.1357C65.1989 20.7167 64.8885 19.6259 64.2677 18.8632C63.6469 18.1005 62.7778 17.7191 61.6604 17.7191C60.5784 17.7191 59.7181 18.1182 59.0796 18.9164C58.4588 19.7146 58.1484 20.8231 58.1484 22.2421ZM87.0877 10.0566L80.8353 19.2623L87.4601 29H83.283L81.2078 25.9403C80.2677 24.5391 79.4252 23.2531 78.6802 22.0825C77.9352 23.2531 77.0927 24.5391 76.1527 25.9403L74.0508 29H69.9801L76.6582 19.3421L70.3792 10.0566H74.5297L76.4187 12.8768C76.8976 13.5686 77.6781 14.7836 78.76 16.5218C79.1148 15.972 79.4784 15.4133 79.8509 14.8457C80.2234 14.2604 80.5071 13.8169 80.7023 13.5154C80.8974 13.2139 81.0393 13.001 81.128 12.8768L83.0436 10.0566H87.0877Z" fill="white"/>
<path d="M8.75333 29.4257C6.18143 29.4257 4.18599 28.8492 2.76701 27.6963C1.36577 26.5434 0.656278 24.8938 0.638541 22.7476H4.17712C4.19486 24.0957 4.59395 25.0623 5.37439 25.6477C6.17256 26.233 7.33435 26.5257 8.85975 26.5257C10.1014 26.5257 11.0503 26.2951 11.7066 25.8339C12.3629 25.355 12.691 24.6721 12.691 23.7853C12.691 23.0403 12.4072 22.4727 11.8396 22.0825C11.2898 21.6923 10.2787 21.3464 8.80654 21.0448L7.21019 20.7256C3.14836 19.9629 1.11745 18.0473 1.11745 14.9787C1.11745 13.3469 1.73825 12.0521 2.97986 11.0943C4.22146 10.1187 5.94198 9.63093 8.1414 9.63093C10.6423 9.63093 12.5314 10.163 13.8084 11.2273C15.1033 12.2915 15.7861 13.7814 15.8571 15.6971H12.3717C12.3008 14.6151 11.9372 13.8169 11.2809 13.3025C10.6423 12.7882 9.61359 12.531 8.19461 12.531C7.0949 12.531 6.25238 12.7349 5.66705 13.1429C5.08172 13.5509 4.78906 14.1273 4.78906 14.8723C4.78906 15.635 5.05511 16.2203 5.58723 16.6283C6.13709 17.0362 7.10377 17.3821 8.48727 17.6659L10.1368 17.9852C12.354 18.4286 13.9503 19.0937 14.9259 19.9806C15.9192 20.8497 16.4158 22.0559 16.4158 23.599C16.4158 25.4437 15.7418 26.8804 14.3938 27.9092C13.0457 28.9202 11.1656 29.4257 8.75333 29.4257Z" fill="white"/>
<path d="M23.75 11.8935C25.0645 11.8935 26.6165 12.5696 27.8701 13.7294C29.1274 14.8927 29.8348 16.3062 29.835 17.5341C29.835 18.7301 29.1044 20.1401 27.7822 21.3193C26.4677 22.4915 24.8523 23.1747 23.5283 23.1747C21.116 23.1747 18.9971 20.6566 18.9971 17.5341C18.9973 14.4961 21.2689 11.8937 23.75 11.8935Z" stroke="#DEDEDE" stroke-width="3.36783"/>
<path d="M22.7491 33.2576V23.972C21.4075 23.972 19.1467 24.5382 18.7858 26.4633C18.4685 28.155 18.7858 29.3698 18.7858 29.9737" stroke="#DEDEDE" stroke-width="1.9365" stroke-linecap="round"/>
<path d="M22.4974 23.9722H27.5067C28.8656 24.0633 30.7629 24.5684 31.2436 26.0105C31.6817 27.3248 31.5833 28.3167 31.5833 28.8028" stroke="#DEDEDE" stroke-width="1.9365" stroke-linecap="round"/>
<path d="M22.7519 23.9722H21.7837C21.7837 23.701 21.8974 23.4423 22.0971 23.2589C22.2969 23.0755 22.5644 22.9843 22.8346 23.0075L22.7519 23.9722ZM23.7202 33.2578C23.7202 33.7925 23.2867 34.226 22.7519 34.226C22.2172 34.226 21.7837 33.7925 21.7837 33.2578H23.7202ZM26.9418 26.4634L27.8407 26.1038V26.1038L26.9418 26.4634ZM27.91 31.5592C27.91 32.0939 27.4765 32.5274 26.9418 32.5274C26.407 32.5274 25.9735 32.0939 25.9735 31.5592H27.91ZM23.7202 23.9722V33.2578H21.7837V23.9722H23.7202ZM22.8346 23.0075C24.1191 23.1176 26.7358 23.3416 27.8407 26.1038L26.0428 26.823C25.4157 25.2554 24.027 25.0533 22.6692 24.9369L22.8346 23.0075ZM27.8407 26.1038C28.0183 26.5478 28.0782 27.1092 28.1002 27.61C28.1234 28.1386 28.1075 28.7188 28.0785 29.2613C28.0493 29.8062 28.0057 30.3313 27.9702 30.7492C27.9321 31.1993 27.91 31.4616 27.91 31.5592H25.9735C25.9735 31.3548 26.008 30.9706 26.0407 30.5857C26.076 30.1684 26.1173 29.6697 26.1447 29.1577C26.1723 28.6432 26.1848 28.1335 26.1655 27.6949C26.145 27.2284 26.0916 26.9452 26.0428 26.823L27.8407 26.1038Z" fill="#DEDEDE"/>
</svg>
