<svg width="81" height="81" viewBox="0 0 81 81" fill="none" xmlns="http://www.w3.org/2000/svg">
<circle cx="40.5" cy="40.5" r="39.75" stroke="#484E53" stroke-width="1.5"/>
<path d="M36.6128 33.8807C36.9419 33.8807 37.1612 33.6614 37.1612 33.3325V32.2362C37.1612 29.002 40.0128 26.1515 40.9999 25.2745C41.4386 25.6582 42.2064 26.4256 42.9193 27.3575C43.0838 27.5768 43.4677 27.6316 43.687 27.4671C43.9064 27.3027 43.9612 26.919 43.7967 26.6997C42.5903 25.11 41.3838 24.1233 41.329 24.1233C41.1096 23.9589 40.8354 23.9589 40.6709 24.1233C40.4516 24.2878 36.0645 27.796 36.0645 32.2362V33.3325C36.0645 33.6614 36.2838 33.8807 36.6128 33.8807Z" fill="#A9A9A9"/>
<path d="M41 28.3992C40.5065 28.3992 40.0677 28.5089 39.629 28.783C39.3548 28.9474 39.3 29.2763 39.4097 29.5504C39.5742 29.8245 39.9032 29.8793 40.1774 29.7697C40.4516 29.6052 40.7258 29.5504 41 29.5504C41.9323 29.5504 42.6452 30.263 42.6452 31.1949C42.6452 32.1268 41.9323 32.8394 41 32.8394C40.0677 32.8394 39.3548 32.1268 39.3548 31.1949C39.3548 30.866 39.1355 30.6467 38.8065 30.6467C38.4774 30.6467 38.2581 30.866 38.2581 31.1949C38.2581 32.7297 39.4645 33.9357 41 33.9357C42.5355 33.9357 43.7419 32.7297 43.7419 31.1949C43.7419 29.66 42.5355 28.3992 41 28.3992ZM50.871 31.6882C51.2 31.6882 51.4194 31.469 51.4194 31.1401C51.4194 30.8112 51.2 30.5919 50.871 30.5919C50.5419 30.5919 50.3226 30.3726 50.3226 30.0437C50.3226 29.7148 50.5419 29.4956 50.871 29.4956C51.2 29.4956 51.4194 29.2763 51.4194 28.9474C51.4194 28.6185 51.6387 28.3992 51.9677 28.3992H52.0226C52.2968 28.5089 52.6258 28.4541 52.7355 28.18C53.0097 27.6318 53.5581 27.3029 54.1613 27.3029C55.0935 27.3029 55.8065 28.0155 55.8065 28.9474C55.8065 29.2763 56.0258 29.4956 56.3548 29.4956C56.6839 29.4956 56.9032 29.7148 56.9032 30.0437C56.9032 30.3726 56.6839 30.5919 56.3548 30.5919H53.0645C52.7355 30.5919 52.5161 30.8112 52.5161 31.1401C52.5161 31.469 52.7355 31.6882 53.0645 31.6882H56.3548C57.2871 31.6882 58 30.9756 58 30.0437C58 29.3311 57.5065 28.6733 56.8484 28.4541C56.629 27.1933 55.5323 26.2066 54.1613 26.2066C53.2839 26.2066 52.4613 26.5903 51.9677 27.3029C51.2 27.3029 50.5968 27.7963 50.3774 28.4541C49.7194 28.6733 49.2258 29.2763 49.2258 30.0437C49.2258 30.9756 49.9387 31.6882 50.871 31.6882ZM31.6774 38.8144C31.6774 39.7463 32.3903 40.4589 33.3226 40.4589H38.8065C39.7387 40.4589 40.4516 39.7463 40.4516 38.8144C40.4516 38.1018 39.9581 37.444 39.3 37.2247C39.0806 35.9639 37.9839 34.9772 36.6129 34.9772C36.2839 34.9772 36.0645 35.1965 36.0645 35.5254C36.0645 35.8543 36.2839 36.0736 36.6129 36.0736C37.5452 36.0736 38.2581 36.7862 38.2581 37.7181C38.2581 38.0469 38.4774 38.2662 38.8065 38.2662C39.1355 38.2662 39.3548 38.4855 39.3548 38.8144C39.3548 39.1433 39.1355 39.3625 38.8065 39.3625H33.3226C32.9935 39.3625 32.7742 39.1433 32.7742 38.8144C32.7742 38.4855 32.9935 38.2662 33.3226 38.2662C33.6516 38.2662 33.871 38.0469 33.871 37.7181C33.871 37.3892 34.0903 37.1699 34.4194 37.1699H34.4742C34.7484 37.2795 35.0774 37.1699 35.1871 36.9506C35.2968 36.6765 35.1871 36.3476 34.9677 36.238C34.6935 36.0736 34.5839 36.0736 34.4194 36.0736C33.6516 36.0736 33.0484 36.5669 32.829 37.2247C32.171 37.444 31.6774 38.0469 31.6774 38.8144ZM25.6452 29.4956H28.9903C29.3194 29.4956 29.5387 29.2763 29.5387 28.9474C29.5387 28.6185 29.3194 28.3992 28.9903 28.3992H25.6452C25.3161 28.3992 25.0968 28.18 25.0968 27.8511C25.0968 27.5222 25.3161 27.3029 25.6452 27.3029C25.9742 27.3029 26.1935 27.0836 26.1935 26.7547C26.1935 26.4258 26.4129 26.2066 26.7419 26.2066H26.7968C27.071 26.3162 27.4 26.2614 27.5097 25.9873C27.7839 25.4391 28.3323 25.1102 28.9355 25.1102C29.8677 25.1102 30.5806 25.8229 30.5806 26.7547C30.5806 27.0836 30.8 27.3029 31.129 27.3029C31.4581 27.3029 31.6774 27.5222 31.6774 27.8511C31.6774 28.18 31.4581 28.3992 31.129 28.3992C30.8 28.3992 30.5806 28.6185 30.5806 28.9474C30.5806 29.2763 30.8 29.4956 31.129 29.4956C32.0613 29.4956 32.7742 28.783 32.7742 27.8511C32.7742 27.1385 32.2806 26.4807 31.6226 26.2614C31.4032 25.0006 30.3065 24.0139 28.9355 24.0139C28.0581 24.0139 27.2355 24.3976 26.7419 25.1102C26.029 25.1102 25.371 25.6036 25.1516 26.2614C24.4935 26.4807 24 27.0836 24 27.8511C24 28.783 24.7129 29.4956 25.6452 29.4956Z" fill="#A9A9A9"/>
<path d="M45.5516 52.5181C45.771 52.5181 45.9903 52.3536 46.0452 52.1343C46.429 51.038 47.471 50.3254 48.6774 50.3254C49.0613 50.3254 49.3903 50.435 49.7194 50.5447C49.8839 50.5995 49.9935 50.5447 50.1581 50.4898C50.2677 50.435 50.3774 50.3254 50.4323 50.1609C50.7613 48.955 51.8581 48.1327 53.0645 48.1327C53.7226 48.1327 54.3806 48.4068 54.929 48.8453C55.1484 49.0646 55.4774 49.0098 55.6968 48.7905C55.9161 48.5713 55.8613 48.2424 55.6419 48.0231C54.929 47.3653 53.9968 47.0364 53.0645 47.0364C51.529 47.0364 50.1581 47.9683 49.5548 49.3387C49.2806 49.2839 49.0065 49.2291 48.6774 49.2291C47.1419 49.2291 45.8258 50.1061 45.1677 51.4217C44.6742 51.4765 44.1806 51.5862 43.7419 51.8603V51.038L45.6613 48.1327H48.6774C49.0065 48.1327 49.2258 47.9135 49.2258 47.5846V45.3919C49.2258 45.2275 49.1161 45.063 49.0065 44.9534L45.9355 42.9252V32.2359C45.9355 31.1944 45.6613 30.0981 45.2226 29.0566C45.1129 28.7825 44.7839 28.6729 44.5097 28.7825C44.2355 28.8921 44.1258 29.221 44.2355 29.4951C44.6742 30.427 44.8935 31.3589 44.8935 32.2359V47.0364H41.6032V43.1992C41.6032 42.8703 41.3839 42.6511 41.0548 42.6511C40.7258 42.6511 40.5065 42.8703 40.5065 43.1992V47.0364H37.2161V41.9933C37.2161 41.6644 36.9968 41.4451 36.6677 41.4451C36.3387 41.4451 36.1194 41.6644 36.1194 41.9933V42.9252L33.0484 44.9534C32.8839 45.063 32.7742 45.2275 32.7742 45.3919V47.5846C32.7742 47.9135 32.9935 48.1327 33.3226 48.1327H36.3387L38.2581 51.038V51.8054C37.8194 51.5862 37.3258 51.4217 36.8323 51.4217C36.1742 50.1061 34.8032 49.2291 33.3226 49.2291C32.9935 49.2291 32.7194 49.2291 32.4452 49.3387C31.8419 47.9683 30.471 47.0364 28.9355 47.0364C26.7968 47.0364 25.0968 48.7357 25.0968 50.8736C25.0968 51.1476 25.1516 51.4217 25.2065 51.641V51.7506C25.2613 52.0247 25.5355 52.244 25.8645 52.1892C26.1387 52.1343 26.3581 51.8603 26.3032 51.5314V51.4217C26.2484 51.2025 26.1935 51.038 26.1935 50.8736C26.1935 49.3387 27.4 48.1327 28.9355 48.1327C30.1419 48.1327 31.2387 48.955 31.5677 50.1609C31.6226 50.3254 31.7323 50.435 31.8419 50.4898C32.0065 50.5447 32.171 50.5447 32.2806 50.4898C32.5548 50.3802 32.8839 50.3254 33.2677 50.3254C34.4194 50.3254 35.4613 51.0928 35.9 52.1892C35.9548 52.4084 36.1742 52.5181 36.3935 52.5181H36.5032C37.2161 52.5181 37.8742 52.7921 38.3677 53.2855C38.4774 53.3951 38.5871 53.4499 38.7516 53.4499C38.8065 53.4499 38.9161 53.4499 38.971 53.3951C39.1903 53.2855 39.3 53.121 39.3 52.9018V51.4217H42.5903V52.9018C42.5903 53.121 42.7 53.3403 42.9194 53.3951C43.1387 53.5047 43.3581 53.4499 43.5226 53.2855C43.9065 52.9018 44.5645 52.5181 45.3871 52.5181H45.5516ZM45.9355 44.2408L48.129 45.7208V47.0364H45.9355V44.2408ZM36.0645 47.0364H33.871V45.666L36.0645 44.1859V47.0364ZM42.9194 50.3254H39.1355L37.6548 48.1327H44.4L42.9194 50.3254ZM38.8613 56.9034H27.8387C26.3032 56.9034 25.0968 55.6974 25.0968 54.1625C25.0968 53.9433 25.1516 53.724 25.2065 53.5047C25.2613 53.2307 25.0968 52.9018 24.8226 52.8469C24.5484 52.7921 24.2194 52.9566 24.1645 53.2307C24.0548 53.5047 24 53.8336 24 54.1625C24 56.3004 25.7 57.9997 27.8387 57.9997H38.8613C39.1903 57.9997 39.4097 57.7804 39.4097 57.4515C39.4097 57.1226 39.1355 56.9034 38.8613 56.9034ZM41.9323 56.9034H41C40.671 56.9034 40.4516 57.1226 40.4516 57.4515C40.4516 57.7804 40.671 57.9997 41 57.9997H41.9323C42.2613 57.9997 42.4806 57.7804 42.4806 57.4515C42.4806 57.1226 42.2613 56.9034 41.9323 56.9034ZM56.5742 51.2025C56.3548 51.038 55.971 51.038 55.8065 51.3121C55.6419 51.5314 55.6419 51.9151 55.9161 52.0795C56.5742 52.5729 56.9032 53.3403 56.9032 54.1625C56.9032 55.6974 55.6968 56.9034 54.1613 56.9034H44.3452C44.0161 56.9034 43.7968 57.1226 43.7968 57.4515C43.7968 57.7804 44.0161 57.9997 44.3452 57.9997H54.1613C56.3 57.9997 58 56.3004 58 54.1625C58 53.0114 57.5065 51.9151 56.5742 51.2025Z" fill="#A9A9A9"/>
<path d="M28.6612 55.8074H31.9515C32.2805 55.8074 32.4999 55.5882 32.4999 55.2593C32.4999 54.9304 32.2805 54.7111 31.9515 54.7111H28.6612C28.058 54.7111 27.5096 54.3822 27.2354 53.8889C27.0709 53.6148 26.7418 53.56 26.4676 53.6696C26.1934 53.834 26.1386 54.1629 26.2483 54.437C26.7418 55.2593 27.6741 55.8074 28.6612 55.8074ZM35.2418 55.8074C35.5709 55.8074 35.7902 55.5882 35.7902 55.2593C35.7902 54.9304 35.5709 54.7111 35.2418 54.7111H34.145C33.816 54.7111 33.5967 54.9304 33.5967 55.2593C33.5967 55.5882 33.816 55.8074 34.145 55.8074H35.2418ZM43.1934 39.3625C42.8644 39.3625 42.645 39.5817 42.645 39.9106V45.3923C42.645 45.7212 42.8644 45.9405 43.1934 45.9405C43.5225 45.9405 43.7418 45.7212 43.7418 45.3923V39.9106C43.7418 39.5817 43.5225 39.3625 43.1934 39.3625ZM43.7418 36.6217C43.7418 36.2928 43.5225 36.0735 43.1934 36.0735C42.8644 36.0735 42.645 36.2928 42.645 36.6217V37.718C42.645 38.0469 42.8644 38.2661 43.1934 38.2661C43.5225 38.2661 43.7418 38.0469 43.7418 37.718V36.6217Z" fill="#A9A9A9"/>
</svg>
