<svg width="106" height="29" viewBox="0 0 106 29" fill="none" xmlns="http://www.w3.org/2000/svg">
<g clip-path="url(#clip0_3_807)">
<mask id="mask0_3_807" style="mask-type:luminance" maskUnits="userSpaceOnUse" x="0" y="0" width="106" height="29">
<path d="M106 0H0V29H106V0Z" fill="white"/>
</mask>
<g mask="url(#mask0_3_807)">
<path d="M0.058234 22.7065H8.95645V14.4754C7.78809 14.4748 6.63109 14.6873 5.55166 15.1009C4.47222 15.5145 3.49157 16.1209 2.66583 16.8855C0.997456 18.4297 0.0596374 20.5233 0.058234 22.7065ZM0.058234 14.4754V6.24428H8.95645C8.95331 8.42806 8.01577 10.5219 6.34872 12.0682C5.52442 12.8344 4.54397 13.4416 3.46417 13.8549C2.38436 14.268 1.22665 14.479 0.0581055 14.4754H0.058234Z" fill="#DEDEDE"/>
<path d="M8.9563 14.4754H17.8545V6.24427C16.6865 6.24433 15.5298 6.45722 14.4507 6.87078C13.3716 7.28435 12.3911 7.8905 11.5652 8.6546C9.8964 10.1986 8.95811 12.2921 8.9563 14.4754ZM39.0584 6.06552V9.73449H36.2395C33.032 9.73449 31.0986 11.2054 31.0986 14.3312V22.6888H26.7527V6.2243H30.927V9.16626C31.3387 8.186 32.0733 7.3503 33.0267 6.77737C33.98 6.20444 35.104 5.92327 36.2395 5.97364C36.6551 6.00692 38.679 6.00692 39.0584 6.06552ZM57.4915 15.7291H44.174C44.4902 18.6626 46.2791 19.9747 48.7998 19.9747C49.6617 20.0335 50.5213 19.8358 51.2529 19.4102C51.9845 18.9845 52.5497 18.3536 52.8656 17.6095H57.0397C56.1362 20.9525 53.0373 23.1005 48.7637 23.1005C43.5235 23.1005 39.9005 19.7574 39.9005 14.4837C39.9005 9.21011 43.415 5.86703 48.6914 5.86703C54.1124 5.86703 57.4915 9.54433 57.4915 14.7763V15.7291ZM44.2101 12.9209H53.1457C52.8024 10.5975 51.2484 9.00117 48.6282 9.00117C46.3243 9.00117 44.6258 10.213 44.2101 12.9209ZM78.1184 14.4838C78.1184 19.7156 75.0465 23.1005 70.1495 23.1005C69.0756 23.1459 68.0067 22.9401 67.0417 22.5017C66.0768 22.0634 65.2469 21.407 64.6292 20.5932V28.9508H60.2834V6.25152H64.4575V8.61668C65.0628 7.73733 65.9072 7.02051 66.9062 6.53795C67.905 6.05541 69.0235 5.82409 70.1495 5.86715C75.0465 5.86715 78.1184 9.25195 78.1184 14.4838ZM73.7002 14.3584C73.7002 10.8817 71.9475 9.19347 69.1196 9.19347C66.2916 9.19347 64.5297 11.007 64.5297 14.4838C64.5297 17.9605 66.2825 19.7825 69.1196 19.7825C71.9565 19.7825 73.7002 17.8352 73.7002 14.3584ZM80.8467 0H85.1744V22.716H80.8287L80.8467 0ZM87.8849 14.4837C87.8849 9.25183 91.5441 5.86703 96.9651 5.86703C102.386 5.86703 106 9.25195 106 14.4837C106 19.7156 102.386 23.1005 96.9651 23.1005C91.5441 23.1005 87.8849 19.7574 87.8849 14.4837ZM101.582 14.4837C101.582 11.007 99.7749 9.19336 96.9651 9.19336C94.1551 9.19336 92.3391 11.007 92.3391 14.4837C92.3391 17.9605 94.1461 19.7825 96.9651 19.7825C99.7839 19.7825 101.609 17.9605 101.609 14.4837H101.582Z" fill="#DEDEDE"/>
</g>
</g>
<defs>
<clipPath id="clip0_3_807">
<rect width="106" height="29" fill="white"/>
</clipPath>
</defs>
</svg>
