<svg width="37" height="37" viewBox="0 0 37 37" fill="none" xmlns="http://www.w3.org/2000/svg">
<g clip-path="url(#clip0_3_1109)">
<path d="M20.4055 31.4888H16.381C16.269 31.4886 16.1584 31.4628 16.0574 31.4133C15.9563 31.3638 15.8674 31.2918 15.7971 31.2025C15.7267 31.1133 15.6767 31.0092 15.6507 30.8976C15.6248 30.7861 15.6235 30.6701 15.647 30.558L17.9782 19.5415C17.4918 18.9026 17.0398 18.237 16.6242 17.5478C16.0733 21.6613 12.5727 24.8424 8.34849 24.8424C3.74604 24.8439 0.000732422 21.0638 0.000732422 16.4172V6.14424C0.000732422 5.94055 0.0798094 5.7452 0.220567 5.60117C0.361325 5.45714 0.552234 5.37622 0.751295 5.37622H4.68725C4.88631 5.37622 5.07722 5.45714 5.21798 5.60117C5.35873 5.7452 5.43781 5.94055 5.43781 6.14424V16.4172C5.43931 18.0193 6.74679 19.3265 8.34849 19.3296C9.9517 19.3265 11.2592 18.0193 11.2607 16.4172V6.14424C11.2607 5.94055 11.3398 5.7452 11.4805 5.60117C11.6213 5.45714 11.8122 5.37622 12.0112 5.37622H15.9472C16.2804 5.37622 16.5732 5.60048 16.6662 5.92612C17.3798 8.37481 18.3771 10.7273 19.637 12.9335C21.1291 9.55117 23.9617 7.5789 27.4503 7.5789C32.1789 7.5789 36.0248 11.4482 36.0248 16.2022C36.0248 20.967 32.1789 24.8424 27.4503 24.8424C25.7855 24.8418 24.1449 24.4348 22.6647 23.6551L21.1351 30.8821C21.1005 31.0538 21.009 31.208 20.876 31.3185C20.7431 31.4291 20.5769 31.4893 20.4055 31.4888ZM17.3117 29.9528H19.7991L21.4158 22.311C21.4403 22.1899 21.4933 22.0768 21.57 21.9813C21.6468 21.8857 21.745 21.8107 21.8564 21.7627C21.9677 21.7146 22.0888 21.695 22.2092 21.7054C22.3296 21.7158 22.4458 21.756 22.5476 21.8226C24.0833 22.8087 25.733 23.3079 27.4518 23.3079C31.3533 23.3079 34.5251 20.1206 34.5251 16.2037C34.5251 12.2961 31.3518 9.11647 27.4518 9.11647C24.1764 9.11647 21.5899 11.2685 20.5316 14.8751C20.4899 15.0134 20.411 15.137 20.3038 15.2316C20.1967 15.3262 20.0657 15.388 19.9258 15.41C19.7859 15.432 19.6428 15.4132 19.5129 15.3558C19.383 15.2984 19.2715 15.2047 19.1911 15.0855C17.663 12.7784 16.294 9.82765 15.3933 6.91379H12.7633V16.4188C12.7603 18.8688 10.7803 20.8641 8.35 20.8671C5.91967 20.8641 3.94119 18.8688 3.93819 16.4203V6.91226H1.50186V16.4172C1.50186 20.2174 4.57316 23.3079 8.34849 23.3079C12.1253 23.3079 15.1981 20.2159 15.1981 16.4172V14.6969C15.1981 14.523 15.2557 14.3543 15.3616 14.2183C15.4674 14.0823 15.6152 13.9871 15.7808 13.9482C15.9464 13.9094 16.12 13.9291 16.2732 14.0043C16.4264 14.0794 16.5501 14.2056 16.6242 14.362C17.4483 16.0962 18.373 17.6107 19.3713 18.8657C19.4425 18.9549 19.4931 19.0593 19.5193 19.1713C19.5456 19.2833 19.5468 19.3998 19.5229 19.5124L17.3117 29.9528ZM27.4533 20.8733C25.7931 20.8733 24.1478 20.2205 22.5642 18.9333C22.4545 18.8442 22.3713 18.7255 22.3241 18.5906C22.2768 18.4557 22.2675 18.31 22.297 18.1699L22.6242 16.6169C23.2096 13.3713 24.9675 11.5296 27.4533 11.5296C30.0112 11.5296 32.0918 13.6247 32.0918 16.2007C32.0918 18.7781 30.0097 20.8733 27.4533 20.8733ZM23.8641 18.0163C25.056 18.8933 26.2614 19.3373 27.4518 19.3373C29.1811 19.3373 30.5892 17.9302 30.5907 16.2022C30.5907 14.4742 29.1826 13.0672 27.4533 13.0672C25.2527 13.0672 24.4195 15.1285 24.1073 16.8581L23.8641 18.0163Z" fill="#DEDEDE"/>
</g>
<defs>
<clipPath id="clip0_3_1109">
<rect width="36.027" height="36.8649" fill="white"/>
</clipPath>
</defs>
</svg>
